<svg version="1" xmlns="http://www.w3.org/2000/svg" width="1024" height="1024" viewBox="0 0 768.000000 768.000000"><path d="M42 85.7v85.4l5.8-.2c3.1-.1 7-.1 8.5 0l2.8.1-2.9 4.2c-4.5 6.5-8.9 15.8-11.4 24l-2.3 7.3-.3 280.7L42 768h202l.1-84.8c.1-46.6.2-164.1.3-261.2l.1-176.5h114l114 .1 7.3 2.3c8.8 2.9 15.8 7.7 22.6 15.5l5.1 5.8-.1 16.2c0 8.8-.6 18.6-1.3 21.6-.6 3-1.3 6.6-1.6 7.9-1.9 9.9-9.7 26.8-16.5 35.7-22.9 29.6-61.6 44.5-116.2 44.8l-10.8.1-.1 4c0 2.2-.1 34.9-.1 72.6v68.6l17 24.4c9.3 13.4 34.1 49.1 55 79.4 21 30.2 38.6 55.7 39.2 56.5.6.8 9.3 13.4 19.4 28 10.2 14.6 19.9 28.7 21.8 31.3 1.8 2.6 3.8 5.4 4.3 6.2.9 1.3 15 1.5 111.6 1.3l110.6-.3-15.4-22c-8.4-12.1-17.2-24.7-19.5-28-4-5.8-31-44.5-37.3-53.5-1.7-2.5-19.8-28.4-40.1-57.5-20.4-29.2-38.6-55.3-40.5-58-1.9-2.8-6.6-9.5-10.4-15-3.8-5.5-7.3-10.3-7.7-10.6-.5-.3 1.9-2.1 5.4-3.9 10.7-5.6 32.7-19.6 34.8-22 .3-.3 2.1-1.7 4-3s3.7-2.7 4-3c.3-.3 2.8-2.3 5.5-4.5 5.1-4.1 24-22.6 28.5-28 22.8-27.2 38.9-56.6 48.8-89 2.9-9.6 6.6-25.3 7.8-33.3.3-2 .7-4.4.9-5.2.5-1.6 1.2-8.3 2.5-21.5.8-8.4.5-53.2-.4-57.5-.2-1.4-.7-5.2-1-8.5-.3-3.3-.8-7-1-8.1-.2-1.2-.7-3.9-1-6-6.2-40-26.1-85.6-50.6-115.8-9.6-11.8-29-31.3-40-40.2-29.5-23.8-70.5-44.7-108.5-55.3-6-1.7-12.3-3.5-14-4.1-4.1-1.3-23.9-5.5-31-6.5-1.1-.2-4.9-.8-8.5-1.4-3.6-.5-8.7-1.3-11.5-1.6-2.7-.4-6-.8-7.1-1-1.2-.2-5.9-.6-10.5-1s-10.2-.9-12.4-1.2c-2.2-.2-86.7-.6-187.7-.7L42 .3v85.4zm345.5 85.8c13.5.9 13.3.9 22.5 2.4 10.8 1.9 25.3 5.8 34.5 9.4 8 3.2 23.3 11.9 28.2 16 3.8 3.3 14.1 13.9 15.8 16.4l1.5 2.2-4.7-1.4c-2.7-.7-6.6-1.6-8.8-1.9-2.2-.3-55.5-.5-118.5-.6H243.4l-.2-3.2c-.8-10.1-6.6-25.7-13.1-35.2l-3.1-4.5 4.7-.3c9.7-.6 145.2 0 155.8.7zm-211.8 1.4c18.7 5.7 32.9 21.1 35.9 39.1.4 2.5.8 44.8.8 94l.1 89.5-69-.1c-37.9-.1-69.2-.2-69.5-.3-.8-.2-.4-180.1.4-183.9 2.9-14.4 13.5-28.1 26.8-34.6 4-2 8.6-3.9 10.3-4.2 1.6-.3 3.1-.7 3.4-.9.2-.3 12.6-.4 27.5-.4 23.5 0 28 .2 33.3 1.8z"/><path d="M108.2 247.7c-10.9 5.4-11.7 21.1-1.4 27.5 3.5 2.2 4.5 2.2 31.7 2.4 29.1.1 32.3-.3 36.8-4.4 7.7-7 6-20-3.3-24.9-4.2-2.2-5-2.3-32.4-2.3-24 0-28.6.3-31.4 1.7z"/></svg>