<svg version="1" xmlns="http://www.w3.org/2000/svg" width="1781.333" height="1781.333" viewBox="0 0 1336.000000 1336.000000"><path d="M498 1.7c-9.5 3.3-17.1 9.8-21.5 18.3-4.1 7.9-4.2 10.3-4 74 .2 66.8 0 64.4 5.8 73.7 7.3 11.5 19.5 17.1 37 16.8 7.2 0 8.7.2 8.8 1.5.1 1.8.1 46 0 47.7-.1 1-36.4 1.3-178.1 1.3H168v244h12c6.6 0 12 .2 12 .5s-1.8 3.2-4.1 6.5c-7.5 11-15.6 29.7-17.3 40.1-.3 1.9-.9 4.5-1.3 5.9-.4 1.4-.9 182.6-1 402.7L168 1335l5.7.1c36.3.3 282.3 0 283-.4.4-.3.8-168.8.8-374.4v-374h33.2c33.2 0 33.3 0 33.4 2.1 0 1.1.1 8.9.1 17.3l.1 15.2-5.7 5.2c-17.4 15.8-17.9 44-1.2 60.2 26.6 25.8 69.8 8.3 71.1-28.8.4-12.7-5.6-25-16.7-34.2l-2.6-2.1v-34.9l108.7.2 108.6.2 7.7 2.5c4.2 1.4 10.7 4.2 14.5 6.4 7.4 4.1 19.2 15.2 23.8 22.4 2.9 4.5 2.9 4.6 2.9 20.5.1 16.3-.7 27.4-2.5 36.8-.5 2.8-1.2 6.3-1.4 7.7-.4 2-2.3 9.1-3.9 14.5-1.9 6.5-7.3 18.5-11.6 26.1-14.7 25.6-39.3 46.8-68.5 58.9-5 2.1-20.5 7.6-22.5 8-.8.2-4.2 1-7.5 1.9-8.1 2.2-9.2 2.5-19 4.2-1.1.2-3.1.6-4.5.8-4.4.9-17 2.5-25 3.2-1.9.1-12.5.6-23.5 1-11 .3-20.2.8-20.3.9-.2.2-.4 46.8-.4 103.5v103.2l3.9 5.6c2.1 3.2 10 14.5 17.4 25.2 7.5 10.7 28.8 41.5 47.5 68.5 18.7 26.9 38.2 55.1 43.4 62.5 5.1 7.4 10.8 15.5 12.5 18 1.7 2.5 12.3 17.8 23.5 34s20.6 29.7 20.9 30c.3.3 1.1 1.3 1.6 2.2.6.9 3 4.5 5.4 8 2.4 3.5 6.9 9.9 9.9 14.3 3.1 4.4 10.7 15.4 17 24.5 6.4 9.1 14 20.1 17 24.5 3.1 4.4 5.7 8.2 6 8.5.2.3 71.6.5 158.7.5 152.2 0 158.3-.1 157.3-1.8-.5-1-10.3-15.2-21.7-31.5-11.4-16.3-25.3-36.2-30.8-44.2-5.6-8-12.2-17.4-14.7-21-2.5-3.6-6.5-9.4-9-13-2.5-3.6-7.2-10.3-10.5-15-3.3-4.7-8.5-12.1-11.5-16.5-7.1-10.3-32.8-47.1-35.6-51-1.2-1.7-7.9-11.3-15-21.5s-13.5-19.3-14.2-20.2c-.7-1-3.2-4.6-5.6-8-2.4-3.5-9.7-14-16.2-23.3-6.5-9.4-13.8-19.8-16.2-23.3-2.4-3.5-5.9-8.5-7.8-11.2-1.9-2.7-7.3-10.4-12-17.1-4.7-6.8-12-17.2-16.2-23.1l-7.7-10.8 6.7-3.6c3.7-2.1 8.7-4.9 11.2-6.4 2.5-1.4 5.2-2.9 6-3.3.8-.4 2.7-1.5 4.2-2.5 1.5-.9 5.5-3.5 9-5.7 3.5-2.1 6.8-4.3 7.3-4.7.6-.4 4.6-3.3 9-6.4 24.9-17.5 52.9-43.6 72.1-67.4 25.1-31 43.7-64.2 57.9-103.5 3.5-9.7 10.9-35.8 12-42.4.3-1.9.8-3.7 1-4.1.4-.7 4.2-22 4.9-27.5.2-1.7.6-5 1-7.5 4-29 4.2-81.8.3-112.5-2.5-19.4-6.2-40.3-8.9-50-.6-2.2-1.2-4.5-1.4-5-3.8-17.8-14.8-47.4-26.5-71-35.5-72.3-94.7-129.8-173.4-168.5-23.7-11.7-39.8-18.2-63.5-26-14-4.6-38.7-11.6-48-13.5-22.2-4.6-38-7.5-49-9-2.5-.3-5.6-.8-7-1-1.4-.2-5-.7-8-1-3-.4-6.6-.8-8-1-1.4-.2-5.9-.6-10-.9-4.1-.4-9.1-.8-11-1.1-13.8-1.7-44.5-2.4-97.6-2.5h-43.2v-25c0-13.8.3-25.1.7-25.1.3-.1 37.1-.2 81.6-.4 74.9-.2 81.4-.3 86-2 8.7-3.1 16.1-9.2 20.5-16.9 4.7-8.4 4.7-9.5 4.7-73.8 0-57.6-.1-60.9-1.9-66.5-2.5-7.4-7.9-14.4-14.3-18.8C736.3-.4 743 0 616.5.1 516.1.2 502 .4 498 1.7zm219.7 90.6v47.2H517.5l-.1-47.3-.2-47.2h200.5v47.3zM352 480.4c32.1 6.1 56 31.4 59.6 62.8.5 4.7 1 246.7.5 257-.1 1.7-5.5 1.8-99.6 1.8H213V672.7c.1-112.9.3-130.1 1.6-136.2 6.4-28.9 29.3-51 57.9-55.8 7.9-1.3 72.8-1.6 79.5-.3zm172.1-.2c.4 6.6.3 59.2-.2 60-.7 1.1-65 1.5-66.8.4-.6-.4-.9-1.1-.6-1.6.3-.5.1-2.9-.5-5.5-.6-2.5-1.3-6.2-1.6-8.2-.8-5-6-19.6-9.4-26.3-1.5-3.1-4.9-8.6-7.4-12.4-2.5-3.8-4.6-7-4.6-7.2 0-.2 20.5-.4 45.5-.4 35.7 0 45.5.3 45.6 1.2zm144.4.2c2.2.2 6.9.8 10.4 1.1 3.6.4 7.4.8 8.5 1 1.2.2 3.9.6 6.1 1 34 5 65.9 17.5 88.7 34.6 7.3 5.4 20.1 18.1 24.8 24.6l3.1 4.2-3.3-1c-1.8-.6-7.7-1.8-13-2.8-8.9-1.7-17.9-1.8-112.5-1.9-56.5 0-104.9-.1-107.4-.1l-4.7-.1v-62.2l47.6.5c26.3.3 49.5.8 51.7 1.1z"/><path d="M265 588.4c-5.2 1.5-12.3 9.1-13.9 14.9-3.6 12.5 4.3 26.1 16.4 28.3 2.2.4 21.4.7 42.6.7h38.6l5.2-2.8c16.4-8.9 15.8-31.8-1-39.9-4.7-2.3-5-2.4-44.6-2.3-24.7 0-41.1.4-43.3 1.1z"/></svg>