<svg version="1" xmlns="http://www.w3.org/2000/svg" width="670.667" height="670.667" viewBox="0 0 503.000000 503.000000"><path d="M192.4 9.9c-6.3 3.9-6.4 4.2-6.4 29.6 0 16.4.4 23.7 1.3 25.5 2 3.9 7.4 7 12.3 7h4.4v17l-61.7.2-61.8.3-.3 42.2L80 174h9.1l-2.6 3.7c-1.3 2.1-3.3 6-4.2 8.8-1.7 4.7-1.8 14-1.8 144.5v139.5l49.6.3 49.7.2.6-83.2c.3-45.8.5-104.2.4-129.8l-.3-46.5 11.8-.3 11.7-.3v5.7c0 4.8-.4 6.1-3 9-9.9 11.3.7 27.8 15 23.5 10-3 13.2-16.9 5.5-24.1-2.1-2-2.5-3.2-2.5-8.2V211h37.3c42 0 43.6.2 50.5 6.9 4.7 4.6 5.5 8.4 4.2 19.7-2.1 19-11.3 32.4-27.5 40-9.6 4.6-16.9 6.3-31.7 7.7l-12.8 1.1v36.1l.1 36 39 56.3 39 56.2h54.6c43.3 0 54.4-.3 54-1.3-.2-.6-19.2-28.1-42.1-60.9-22.9-32.8-41.6-59.9-41.6-60.2 0-.2 2.9-2.1 6.5-4.1 20.9-11.7 40.1-31.7 50.7-53 12.8-25.6 16.8-59.4 10.7-91.3-4.8-25.2-15.3-45.4-33-63.7-11.4-11.8-22.9-20-39.4-28.1-27.9-13.6-59.1-19.3-107.2-19.4H219V72h28.9c40.2 0 38.1 1.8 38.1-32.6 0-22-.1-23.3-2.1-25.8C279.5 8 279.5 8 235.8 8c-37.9 0-40.5.1-43.4 1.9zM271 40v16h-70V24h70v16zM147.8 175.5c3.5 1.1 6.5 2.9 9.6 6.1 7.5 7.5 7.6 8 7.6 59.6V286H95.9l.3-47.3.3-47.2 2.8-4.7c3.1-5.4 7.6-9.1 13.3-11.2 5.5-2.1 28.4-2.1 35.2-.1zm56 9.2l-.3 10.8h-22.8l-1.4-5.4c-.7-3-2.7-7.9-4.2-10.8l-2.9-5.3h31.9l-.3 10.7zm57.3-9.2c16.1 2.4 28.2 7.8 36.7 16.2 2.4 2.4 4.2 4.5 4 4.6-.1.1-18.7 0-41.3-.3l-41-.5-.3-10.8-.3-10.7h16.3c9.1 0 20.5.7 25.9 1.5z"/><path d="M113.4 212.4c-5.2 2.3-6.2 9.1-1.8 12.5 2.4 1.9 4 2.1 17.4 2.1 16.5 0 18.4-.7 19.6-6.6.5-2.4 0-3.7-1.9-6l-2.5-2.9-13.9-.2c-10.1-.2-14.6.1-16.9 1.1z"/></svg>